<?xml version="1.0" encoding="UTF-8"?><svg id="Layer_2" 
xmlns="http://www.w3.org/2000/svg" viewBox="0 0 283.46 53.95">
<defs><style>.cls-1{fill:#fff;}.cls-2{fill:#4aac36;}</style>
</defs>
<g id="Layer_1-2"><g><g><g><path class="cls-1" d="M61.62,49.85v1.38c0,2.25-.57,2.71-3.27,2.71-2.43,0-3.34-.43-3.34-3v-1.74c0-2.53,.99-2.98,3.34-2.98,1.85,0,3.31-.09,3.26,2.35h-1.45c0-1.11-.55-1.1-1.81-1.1-1.7,0-1.86,.26-1.88,1.73v1.74c.02,1.59,.26,1.75,1.88,1.75,1.39,0,1.81-.03,1.81-1.47v-.27h-1.91v-1.1h3.37Z"/><path class="cls-1" d="M71.84,46.29v5.4c0,2.12-1.33,2.26-3.17,2.26s-3.15-.13-3.15-2.26v-5.4h1.46v5.4c0,.78,.28,1.01,1.69,1.01s1.71-.19,1.71-1.01v-5.4h1.46Z"/><path class="cls-1" d="M77.45,53.88h-1.46v-7.59h1.46v7.59Z"/><path class="cls-1" d="M81.58,46.29h3.62c2.1,0,2.99,.76,2.99,2.82v1.79c0,1.58-.45,2.98-2.74,2.98h-3.87v-7.59Zm3.87,6.35c.98,0,1.29-.88,1.29-1.73v-1.79c0-1.27-.42-1.58-1.53-1.58h-2.17v5.1h2.41Z"/><path class="cls-1" d="M93.45,49.43h3.55v1.19h-3.55v2.01h3.78v1.25h-5.23v-7.59h5.2v1.24h-3.75v1.89Z"/></g><g><path class="cls-1" d="M144,48.83v-.41c0-.88-.34-.94-1.62-.94-1.47,0-1.72,.24-1.72,1.73v1.68c.01,1.52,.19,1.81,1.72,1.81,1.17,0,1.7-.04,1.7-1.12v-.42h1.46v.5c.03,2.29-1.28,2.21-3.16,2.29-2.67,.1-3.15-.78-3.18-3v-1.74c0-2.43,.94-2.98,3.18-2.98,1.89,0,2.98,0,3.08,2.19v.41h-1.46Z"/><path class="cls-1" d="M155.82,53.88h-1.46v-3.24h-3.53v3.24h-1.46v-7.59h1.46v3.11h3.53v-3.11h1.46v7.59Z"/><path class="cls-1" d="M161.35,49.43h3.55v1.19h-3.55v2.01h3.78v1.25h-5.23v-7.59h5.2v1.24h-3.75v1.89Z"/><path class="cls-1" d="M173.59,48.83v-.41c0-.88-.34-.94-1.62-.94-1.47,0-1.72,.24-1.72,1.73v1.68c.01,1.52,.19,1.81,1.72,1.81,1.17,0,1.7-.04,1.7-1.12v-.42h1.46v.5c.03,2.29-1.28,2.21-3.16,2.29-2.67,.1-3.15-.78-3.18-3v-1.74c0-2.43,.94-2.98,3.18-2.98,1.89,0,2.98,0,3.08,2.19v.41h-1.46Z"/><path class="cls-1" d="M180.43,49.39h.68l2.53-3.1h1.79l-3.08,3.7,3.39,3.89h-1.84l-2.79-3.25h-.68v3.25h-1.46v-7.59h1.46v3.1Z"/></g><g><path class="cls-1" d="M229.7,52.44l-.48,1.44h-1.51l2.52-7.59h2.15l2.57,7.59h-1.48l-.5-1.44h-3.28Zm1.65-5.04h-.02l-1.3,3.94h2.62l-1.31-3.94Z"/><path class="cls-1" d="M239.55,51.46v.35c0,.87,.37,.93,1.72,.93s1.51-.24,1.51-1.12c0-1.08-.58-.94-1.71-1-1.64-.1-2.94-.04-2.94-2.25,0-2.09,1.32-2.15,3.14-2.15,1.55,0,2.81,.05,2.81,2.04v.24h-1.46v-.24c0-.82-.33-.85-1.36-.85-1.45,0-1.68,.14-1.68,.95,0,.93,.19,.96,1.67,1.05,2.34,.14,2.98,.26,2.98,2.2,0,2.14-1.01,2.32-2.97,2.32-1.68,0-3.18,.05-3.18-2.13v-.35h1.46Z"/><path class="cls-1" d="M249.2,51.46v.35c0,.87,.37,.93,1.72,.93s1.51-.24,1.51-1.12c0-1.08-.58-.94-1.71-1-1.64-.1-2.94-.04-2.94-2.25,0-2.09,1.32-2.15,3.14-2.15,1.55,0,2.81,.05,2.81,2.04v.24h-1.46v-.24c0-.82-.33-.85-1.36-.85-1.45,0-1.68,.14-1.68,.95,0,.93,.19,.96,1.67,1.05,2.34,.14,2.98,.26,2.98,2.2,0,2.14-1.01,2.32-2.97,2.32-1.68,0-3.18,.05-3.18-2.13v-.35h1.46Z"/><path class="cls-1" d="M264.02,46.29v5.4c0,2.12-1.33,2.26-3.17,2.26s-3.15-.13-3.15-2.26v-5.4h1.46v5.4c0,.78,.28,1.01,1.69,1.01s1.71-.19,1.71-1.01v-5.4h1.46Z"/><path class="cls-1" d="M269.59,51.37v2.51h-1.46v-7.59h3.88c1.66,.04,2.3,.56,2.3,2.28,0,1.12-.06,1.94-1.35,2.14v.04c1.03,.09,1.29,.65,1.29,1.72v1.42h-1.46v-1.42c0-.64-.26-1.08-.96-1.09h-2.24Zm1.92-1.25c1.07,0,1.34-.21,1.34-1.33s-.19-1.27-1.23-1.27h-2.02v2.59h1.92Z"/><path class="cls-1" d="M279.68,49.43h3.55v1.19h-3.55v2.01h3.78v1.25h-5.23v-7.59h5.2v1.24h-3.75v1.89Z"/></g><rect class="cls-1" x="117.56" y="46.29" width="1.31" height="7.59"/><rect class="cls-1" x="206.08" y="46.29" width="1.31" height="7.59"/></g><g><path class="cls-1" d="M55.01,8.17h9.2v30h-9.2V8.17Z"/><path class="cls-1" d="M70.94,8.17h14.26l17.28,21.8h.08V8.17h9.2v30h-14.26l-17.28-21.8h-.08v21.8h-9.2V8.17Z"/><path class="cls-1" d="M117.34,18.7c0-8.79,4.93-10.86,13.22-10.86h10.81c13.1,0,14.79,2.82,14.71,11.31h-9.2v-.83c0-2.16-1.57-2.78-4.31-2.78h-10.03c-4.85,0-5.76,2.28-5.76,6.01v3.23c0,4.35,.91,6.01,5.26,6.01h9.82c4.14,0,5.39-.42,5.39-4.14h9.2v2.82c0,5.06-1.82,9.03-11.06,9.03h-14.84c-8.29,0-13.22-2.07-13.22-10.86v-8.95Z"/><path class="cls-1" d="M175.34,8.17h11.98l16.49,30h-10.24l-2.86-5.3h-18.65l-2.69,5.3h-10.28l16.25-30Zm.17,18.23h11.77l-5.97-11.27-5.8,11.27Z"/><path class="cls-1" d="M206.57,28.36h9.2c.04,3.19,1.33,3.44,3.98,3.44h11.27c1.95,0,3.94-.21,3.94-2.53,0-2.61-1.08-2.78-12.93-2.78-13.84,0-15.42-1.66-15.42-9.03,0-5.43,.5-9.62,12.1-9.62h12.85c10.61,0,11.6,3.61,11.6,8.87v.95h-9.2c0-2.2-.25-3.11-4.48-3.11h-10.19c-2.07,0-3.48,.71-3.48,2.32,0,2.61,1.12,2.69,10.98,2.65,14.3-.04,17.61,.83,17.61,9.57,0,8.08-2.73,9.41-14.96,9.41h-11.15c-8.37,0-11.73-1.58-11.73-8.08v-2.07Z"/><path class="cls-1" d="M250.1,8.17h32.82v6.96h-23.62v4.81h22.38v6.22h-22.38v4.81h24.16v7.21h-33.36V8.17Z"/></g><path class="cls-2" d="M23.18,0C10.38,0,0,10.38,0,23.18c0,1.25,.1,2.49,.29,3.69L18.11,9.04c1.16-1.16,3.04-1.16,4.19,0,1.16,1.16,1.16,3.04,0,4.19L2.3,33.25c.45,.93,.96,1.83,1.53,2.68l14.29-14.29c1.16-1.16,3.04-1.16,4.19,0,1.16,1.16,1.16,3.04,0,4.19l-14.6,14.6c.74,.67,1.53,1.29,2.36,1.86l8.04-8.04c1.16-1.16,3.04-1.16,4.19,0h0c1.16,1.16,1.16,3.04,0,4.19l-6.66,6.66c2.36,.81,4.89,1.26,7.52,1.26,12.8,0,23.18-10.38,23.18-23.18S35.98,0,23.18,0Z"/></g></g></svg>